HIERARCHY
ROOT Hips
{
	OFFSET 0.000000 0.000000 0.000000
	CHANNELS 6 Xposition Yposition Zposition Zrotation Yrotation Xrotation 
	JOINT LHipJoint
	{
		OFFSET 0.000000 0.000000 0.000000
		CHANNELS 3 Zrotation Yrotation Xrotation
		JOINT LeftUpLeg
		{
			OFFSET 1.363060 -1.794630 0.839290
			CHANNELS 3 Zrotation Yrotation Xrotation
			JOINT LeftLeg
			{
				OFFSET 2.448110 -6.726130 0.000000
				CHANNELS 3 Zrotation Yrotation Xrotation
				JOINT LeftFoot
				{
					OFFSET 2.562200 -7.039590 0.000000
					CHANNELS 3 Zrotation Yrotation Xrotation
					JOINT LeftToeBase
					{
						OFFSET 0.157640 -0.433110 2.322550
						CHANNELS 3 Zrotation Yrotation Xrotation
						End Site
						{
							OFFSET 0.000000 0.000000 0.000000
						}
					}
				}
			}
		}
	}
	JOINT RHipJoint
	{
		OFFSET 0.000000 0.000000 0.000000
		CHANNELS 3 Zrotation Yrotation Xrotation
		JOINT RightUpLeg
		{
			OFFSET -1.305520 -1.794630 0.839290
			CHANNELS 3 Zrotation Yrotation Xrotation
			JOINT RightLeg
			{
				OFFSET -2.542530 -6.985550 0.000000
				CHANNELS 3 Zrotation Yrotation Xrotation
				JOINT RightFoot
				{
					OFFSET -2.568260 -7.056230 0.000000
					CHANNELS 3 Zrotation Yrotation Xrotation
					JOINT RightToeBase
					{
						OFFSET -0.164730 -0.452590 2.363150
						CHANNELS 3 Zrotation Yrotation Xrotation
						End Site
						{
							OFFSET 0.000000 0.000000 0.000000
						}
					}
				}
			}
		}
	}
	JOINT LowerBack
	{
		OFFSET 0.000000 0.000000 0.000000
		CHANNELS 3 Zrotation Yrotation Xrotation
		JOINT Spine
		{
			OFFSET 0.028270 2.035590 -0.193380
			CHANNELS 3 Zrotation Yrotation Xrotation
			JOINT Spine1
			{
				OFFSET 0.056720 2.048850 -0.042750
				CHANNELS 3 Zrotation Yrotation Xrotation
				JOINT Neck
				{
					OFFSET 0.000000 0.000000 0.000000
					CHANNELS 3 Zrotation Yrotation Xrotation
					JOINT Neck1
					{
						OFFSET -0.054170 1.746240 0.172020
						CHANNELS 3 Zrotation Yrotation Xrotation
						JOINT Head
						{
							OFFSET 0.104070 1.761360 -0.123970
							CHANNELS 3 Zrotation Yrotation Xrotation
							End Site
							{
								OFFSET 0.000000 0.000000 0.000000
							}
						}
					}
				}
				JOINT LeftShoulder
				{
					OFFSET 0.000000 0.000000 0.000000
					CHANNELS 3 Zrotation Yrotation Xrotation
					JOINT LeftArm
					{
						OFFSET 3.362410 1.200890 -0.311210
						CHANNELS 3 Zrotation Yrotation Xrotation
						JOINT LeftForeArm
						{
							OFFSET 4.983000 -0.000000 -0.000000
							CHANNELS 3 Zrotation Yrotation Xrotation
							JOINT LeftHand
							{
								OFFSET 3.483560 -0.000000 -0.000000
								CHANNELS 3 Zrotation Yrotation Xrotation
								JOINT LeftFingerBase
								{
									OFFSET 0.000000 0.000000 0.000000
									CHANNELS 3 Zrotation Yrotation Xrotation
									JOINT LeftHandIndex1
									{
										OFFSET 0.715260 -0.000000 -0.000000
										CHANNELS 3 Zrotation Yrotation Xrotation
										End Site
										{
											OFFSET 0.000000 0.000000 0.000000
										}
									}
								}
								JOINT LThumb
								{
									OFFSET 0.000000 0.000000 0.000000
									CHANNELS 3 Zrotation Yrotation Xrotation
									End Site
									{
										OFFSET 0.000000 0.000000 0.000000
									}
								}
							}
						}
					}
				}
				JOINT RightShoulder
				{
					OFFSET 0.000000 0.000000 0.000000
					CHANNELS 3 Zrotation Yrotation Xrotation
					JOINT RightArm
					{
						OFFSET -3.136600 1.374050 -0.404650
						CHANNELS 3 Zrotation Yrotation Xrotation
						JOINT RightForeArm
						{
							OFFSET -5.241900 -0.000000 -0.000000
							CHANNELS 3 Zrotation Yrotation Xrotation
							JOINT RightHand
							{
								OFFSET -3.444170 -0.000000 -0.000000
								CHANNELS 3 Zrotation Yrotation Xrotation
								JOINT RightFingerBase
								{
									OFFSET 0.000000 0.000000 0.000000
									CHANNELS 3 Zrotation Yrotation Xrotation
									JOINT RightHandIndex1
									{
										OFFSET -0.622530 -0.000000 -0.000000
										CHANNELS 3 Zrotation Yrotation Xrotation
										End Site
										{
											OFFSET 0.000000 0.000000 0.000000
										}
									}
								}
								JOINT RThumb
								{
									OFFSET 0.000000 0.000000 0.000000
									CHANNELS 3 Zrotation Yrotation Xrotation
									End Site
									{
										OFFSET 0.000000 0.000000 0.000000
									}
								}
							}
						}
					}
				}
			}
		}
	}
}
MOTION
Frames: 5
Frame Time: 0.008333
10.038730 18.098443 -23.588478 3.687402 -27.247497 3.332401 -4.563079 4.139628 6.598574 -19.009892 -8.033632 -1.952782 -1.172706 4.019970 15.067075 -1.098671 4.938704 1.411241 1.650000 -8.095500 -23.004600 0.155588 -3.398689 2.949142 10.445778 20.019044 -27.326653 -2.940429 -11.072283 34.204632 3.197594 -16.642951 -7.283513 -0.007200 0.548800 -1.508100 -2.811214 -1.963039 3.640542 -1.779842 -3.068311 15.380878 2.561339 -1.000517 -11.038774 -0.979564 1.243044 -5.959225 1.583631 1.773984 11.164019 0.199100 1.145000 2.289800 -7.511086 2.632346 -1.926951 -73.535354 -22.718442 32.954041 11.436115 -18.831418 -1.905393 -1.960625 -2.546707 -8.149941 34.675318 11.961618 10.546700 -7.125000 0.000000 0.000000 9.220300 47.464300 0.565200 9.365153 -1.976421 -2.915631 74.956068 -3.950434 23.720193 -12.092234 19.537328 -2.971821 1.570762 -0.567088 14.430400 -20.494298 12.869743 -5.193700 7.125000 0.000000 0.000000 3.551600 -16.107300 2.431600 
9.959171 18.105474 -23.444128 3.486061 -27.170994 3.577895 -4.587532 4.222745 6.697742 -18.704993 -8.015232 -1.393612 -1.239873 3.839144 14.538582 -1.041795 4.729560 1.781162 1.595300 -7.966700 -22.612900 0.212931 -3.384552 2.867105 10.358382 20.484505 -27.194548 -2.374592 -10.316738 31.631326 3.392588 -17.311614 -7.070762 -0.003200 0.364700 -1.002100 -2.225899 -1.925289 3.534093 -2.207804 -2.918156 15.324573 2.306468 -0.986867 -11.039707 0.014698 1.346514 -6.178298 1.343421 1.906010 10.835526 0.010300 1.215700 2.246900 -7.438860 2.637077 -1.942397 -72.976000 -23.121483 34.545528 11.714747 -19.364069 -2.059559 -1.918923 -2.563122 -9.199496 34.846844 11.615020 10.357200 -7.125000 0.000000 0.000000 9.381600 47.062200 0.481500 9.392591 -1.992408 -2.906502 75.493020 -4.149678 22.440991 -11.925176 19.282999 -2.913740 1.451026 -0.769722 15.524026 -19.542749 14.372222 -5.569000 7.125000 0.000000 0.000000 4.322900 -14.403300 3.120800 
9.878608 18.117328 -23.295257 3.457342 -27.389298 3.797131 -4.590031 4.265171 6.788821 -18.759217 -7.679741 -0.933209 -1.285291 3.669870 14.092518 -1.011952 4.612977 2.010223 1.639900 -8.071800 -22.932500 0.284459 -3.381565 2.799915 10.002612 21.209432 -27.156830 -1.884736 -9.593244 29.228585 3.457639 -17.411797 -6.285565 -0.000800 0.186800 -0.513300 -2.081478 -1.946404 3.120008 -2.189702 -2.925844 15.356977 2.240516 -1.019216 -10.794248 0.232166 1.561561 -6.300281 1.174092 2.211731 10.583138 -0.049800 1.363100 2.215500 -7.402292 2.619186 -1.958697 -72.674859 -23.343908 35.153901 12.025459 -19.907371 -2.218258 -1.928223 -2.517275 -9.632941 35.232235 10.775601 9.862200 -7.125000 0.000000 0.000000 9.740100 46.053100 0.255600 9.383958 -1.987187 -2.905035 75.525199 -4.239166 22.236914 -11.833306 19.148683 -2.886221 1.387006 -0.765430 15.826292 -18.887603 14.244115 -5.324000 7.125000 0.000000 0.000000 4.804300 -14.599700 3.450600 
9.796639 18.117930 -23.158440 3.529762 -27.963999 3.963778 -4.579322 4.284838 6.885403 -18.936695 -6.973948 -0.567159 -1.328884 3.464380 13.568507 -1.048368 4.750585 2.332187 1.828100 -8.498400 -24.238400 0.371082 -3.396338 2.737218 9.483248 22.243110 -27.113154 -1.427375 -8.831336 26.776815 3.386949 -16.944703 -4.741682 -0.000600 -0.156900 0.431000 -2.337450 -1.957431 2.645409 -1.837517 -2.989511 15.445983 2.364474 -1.042371 -10.466246 -0.362104 1.796402 -6.226773 1.301829 2.529403 10.456451 0.077400 1.514000 2.178200 -7.384565 2.558567 -1.975481 -72.450944 -23.519598 34.856836 12.396975 -20.520048 -2.399184 -1.907239 -2.516498 -9.800142 35.417378 10.716336 9.880300 -7.125000 0.000000 0.000000 9.903600 46.011100 0.249600 9.374997 -1.964283 -2.892770 75.229852 -4.032944 22.490306 -11.629272 18.820773 -2.789649 1.364507 -0.802860 16.051567 -18.670180 14.292473 -5.290900 7.125000 0.000000 0.000000 4.962600 -14.531400 3.572300 
9.710953 18.117729 -23.043020 3.583659 -28.047454 4.215581 -4.527767 4.306955 6.939219 -18.903916 -6.766241 -0.115623 -1.393642 3.222578 12.925117 -1.095686 4.935113 2.878992 2.044800 -8.958900 -25.666700 0.493784 -3.423102 2.672891 8.861502 23.322863 -27.159481 -1.025866 -8.106497 24.451247 3.444881 -17.115813 -3.452506 -0.000800 -0.179400 0.492900 -3.039386 -2.171111 2.593197 -0.816508 -3.417919 15.158904 2.771909 -1.185995 -10.427705 -1.507755 2.246981 -5.578400 1.544950 3.113639 9.617926 0.298500 1.782000 1.850200 -7.450358 2.504994 -1.987160 -72.463824 -23.424908 34.399056 12.761167 -21.101620 -2.576744 -1.866924 -2.536127 -10.271338 35.448186 10.679272 9.867200 -7.125000 0.000000 0.000000 9.915000 45.983800 0.243100 9.340513 -1.985825 -2.896862 74.472972 -3.973894 23.261921 -11.414273 18.542862 -2.698297 1.358936 -0.871195 16.109486 -18.611887 14.699212 -5.443800 7.125000 0.000000 0.000000 5.012700 -14.041500 3.661000 
